<?xml version="1.0" encoding="UTF-8"?>
<svg id="Layer_2" data-name="Layer 2" xmlns="http://www.w3.org/2000/svg" viewBox="0 0 322.52 227.12">
  <defs>
    <style>
      .cls-1 {
        fill: #f16522;
      }

      .cls-2 {
        fill: #f89e1c;
      }

      .cls-3 {
        fill: #e41b24;
      }

      .cls-4 {
        fill: #36495d;
      }
    </style>
  </defs>
  <g id="Layer_1-2" data-name="Layer 1">
    <rect class="cls-4" width="322.52" height="227.12" rx="29.88" ry="29.88"/>
    <g>
      <rect class="cls-1" x="134.16" y="64.87" width="54.18" height="97.37"/>
      <path class="cls-3" d="m137.61,113.56c0-19.75,9.25-37.34,23.65-48.68-10.54-8.29-23.82-13.24-38.27-13.24-34.2,0-61.92,27.73-61.92,61.93s27.72,61.93,61.92,61.93c14.45,0,27.73-4.95,38.27-13.24-14.4-11.34-23.65-28.93-23.65-48.68"/>
      <path class="cls-2" d="m261.45,113.55c0,34.2-27.72,61.93-61.92,61.93-14.45,0-27.73-4.95-38.27-13.24,14.4-11.34,23.65-28.93,23.65-48.68s-9.25-37.34-23.65-48.68c10.53-8.29,23.82-13.24,38.27-13.24,34.2,0,61.92,27.72,61.92,61.92"/>
    </g>
  </g>
</svg>