<?xml version="1.0" encoding="UTF-8"?>
<svg id="Layer_2" data-name="Layer 2" xmlns="http://www.w3.org/2000/svg" viewBox="0 0 322.52 227.12">
  <defs>
    <style>
      .cls-1 {
        fill: #fff;
      }

      .cls-2 {
        fill: #f9a533;
      }

      .cls-3 {
        fill: #0066b2;
      }
    </style>
  </defs>
  <g id="Layer_1-2" data-name="Layer 1">
    <rect class="cls-3" width="322.52" height="227.12" rx="29.88" ry="29.88"/>
    <g>
      <g>
        <polygon class="cls-1" points="147.57 149.14 130.77 149.14 141.27 84.62 158.07 84.62 147.57 149.14"/>
        <path class="cls-1" d="m116.64,84.62l-16.02,44.38-1.89-9.56h0s-5.65-29.01-5.65-29.01c0,0-.68-5.81-7.97-5.81h-26.47l-.31,1.09s8.1,1.68,17.57,7.38l14.59,56.05h17.5l26.73-64.52h-18.08Z"/>
        <path class="cls-1" d="m248.77,149.14h15.42l-13.45-64.52h-13.51c-6.24,0-7.75,4.81-7.75,4.81l-25.05,59.71h17.51l3.5-9.58h21.35l1.97,9.58Zm-18.48-22.82l8.83-24.15,4.97,24.15h-13.79Z"/>
        <path class="cls-1" d="m205.74,100.13l2.4-13.86s-7.4-2.81-15.11-2.81c-8.34,0-28.13,3.65-28.13,21.36,0,16.67,23.23,16.88,23.23,25.63s-20.84,7.19-27.72,1.67l-2.5,14.48s7.5,3.65,18.96,3.65,28.76-5.94,28.76-22.09-23.44-18.34-23.44-25.63,16.36-6.36,23.55-2.4Z"/>
      </g>
      <path class="cls-2" d="m98.73,119.44l-5.65-29.01s-.68-5.81-7.97-5.81h-26.47l-.31,1.09s12.73,2.64,24.93,12.52c11.67,9.44,15.47,21.21,15.47,21.21Z"/>
    </g>
  </g>
</svg>